<svg width="429" height="64" viewBox="0 0 429 64" fill="none" xmlns="http://www.w3.org/2000/svg">
<path d="M9.912 26.36H31.416V34.68H9.912V26.36ZM10.68 51H0.312V6.2H34.168V14.52H10.68V51ZM40.483 51V16.568H50.467V51H40.483ZM45.475 11.768C43.6403 11.768 42.147 11.2347 40.995 10.168C39.843 9.10133 39.267 7.77866 39.267 6.2C39.267 4.62133 39.843 3.29866 40.995 2.232C42.147 1.16533 43.6403 0.631996 45.475 0.631996C47.3097 0.631996 48.803 1.144 49.955 2.168C51.107 3.14933 51.683 4.42933 51.683 6.008C51.683 7.672 51.107 9.05866 49.955 10.168C48.8457 11.2347 47.3523 11.768 45.475 11.768ZM59.733 51V3.512H69.717V51H59.733ZM96.071 51.512C92.1457 51.512 88.6897 50.744 85.703 49.208C82.759 47.672 80.4763 45.5813 78.855 42.936C77.2337 40.248 76.423 37.1973 76.423 33.784C76.423 30.328 77.2123 27.2773 78.791 24.632C80.4123 21.944 82.6097 19.8533 85.383 18.36C88.1563 16.824 91.2923 16.056 94.791 16.056C98.1617 16.056 101.191 16.7813 103.879 18.232C106.61 19.64 108.764 21.688 110.343 24.376C111.922 27.0213 112.711 30.2 112.711 33.912C112.711 34.296 112.69 34.744 112.647 35.256C112.604 35.7253 112.562 36.1733 112.519 36.6H84.551V30.776H107.271L103.431 32.504C103.431 30.712 103.068 29.1547 102.343 27.832C101.618 26.5093 100.615 25.4853 99.335 24.76C98.055 23.992 96.5617 23.608 94.855 23.608C93.1483 23.608 91.6337 23.992 90.311 24.76C89.031 25.4853 88.0283 26.5307 87.303 27.896C86.5777 29.2187 86.215 30.7973 86.215 32.632V34.168C86.215 36.0453 86.6203 37.7093 87.431 39.16C88.2843 40.568 89.4577 41.656 90.951 42.424C92.487 43.1493 94.279 43.512 96.327 43.512C98.1617 43.512 99.7617 43.2347 101.127 42.68C102.535 42.1253 103.815 41.2933 104.967 40.184L110.279 45.944C108.7 47.736 106.716 49.1227 104.327 50.104C101.938 51.0427 99.1857 51.512 96.071 51.512ZM138.187 51V6.2H146.763L165.835 37.816H161.291L180.043 6.2H188.555L188.683 51H178.955L178.891 21.112H180.683L165.707 46.264H161.035L145.739 21.112H147.915V51H138.187ZM219.728 51V44.28L219.088 42.808V30.776C219.088 28.6427 218.427 26.9787 217.104 25.784C215.824 24.5893 213.84 23.992 211.152 23.992C209.317 23.992 207.504 24.2907 205.712 24.888C203.963 25.4427 202.469 26.2107 201.232 27.192L197.648 20.216C199.525 18.8933 201.787 17.8693 204.432 17.144C207.077 16.4187 209.765 16.056 212.496 16.056C217.744 16.056 221.819 17.2933 224.72 19.768C227.621 22.2427 229.072 26.104 229.072 31.352V51H219.728ZM209.232 51.512C206.544 51.512 204.24 51.064 202.32 50.168C200.4 49.2293 198.928 47.9707 197.904 46.392C196.88 44.8133 196.368 43.0427 196.368 41.08C196.368 39.032 196.859 37.24 197.84 35.704C198.864 34.168 200.464 32.9733 202.64 32.12C204.816 31.224 207.653 30.776 211.152 30.776H220.304V36.6H212.24C209.893 36.6 208.272 36.984 207.376 37.752C206.523 38.52 206.096 39.48 206.096 40.632C206.096 41.912 206.587 42.936 207.568 43.704C208.592 44.4293 209.979 44.792 211.728 44.792C213.392 44.792 214.885 44.408 216.208 43.64C217.531 42.8293 218.491 41.656 219.088 40.12L220.624 44.728C219.899 46.9467 218.576 48.632 216.656 49.784C214.736 50.936 212.261 51.512 209.232 51.512ZM259.036 16.056C261.767 16.056 264.199 16.6107 266.332 17.72C268.508 18.7867 270.215 20.4507 271.452 22.712C272.689 24.9307 273.308 27.7893 273.308 31.288V51H263.324V32.824C263.324 30.0507 262.705 28.0027 261.468 26.68C260.273 25.3573 258.567 24.696 256.348 24.696C254.769 24.696 253.34 25.0373 252.06 25.72C250.823 26.36 249.841 27.3627 249.116 28.728C248.433 30.0933 248.092 31.8427 248.092 33.976V51H238.108V16.568H247.644V26.104L245.852 23.224C247.089 20.92 248.86 19.1493 251.164 17.912C253.468 16.6747 256.092 16.056 259.036 16.056ZM303.478 51V44.28L302.838 42.808V30.776C302.838 28.6427 302.177 26.9787 300.854 25.784C299.574 24.5893 297.59 23.992 294.902 23.992C293.067 23.992 291.254 24.2907 289.462 24.888C287.713 25.4427 286.219 26.2107 284.982 27.192L281.398 20.216C283.275 18.8933 285.537 17.8693 288.182 17.144C290.827 16.4187 293.515 16.056 296.246 16.056C301.494 16.056 305.569 17.2933 308.47 19.768C311.371 22.2427 312.822 26.104 312.822 31.352V51H303.478ZM292.982 51.512C290.294 51.512 287.99 51.064 286.07 50.168C284.15 49.2293 282.678 47.9707 281.654 46.392C280.63 44.8133 280.118 43.0427 280.118 41.08C280.118 39.032 280.609 37.24 281.59 35.704C282.614 34.168 284.214 32.9733 286.39 32.12C288.566 31.224 291.403 30.776 294.902 30.776H304.054V36.6H295.99C293.643 36.6 292.022 36.984 291.126 37.752C290.273 38.52 289.846 39.48 289.846 40.632C289.846 41.912 290.337 42.936 291.318 43.704C292.342 44.4293 293.729 44.792 295.478 44.792C297.142 44.792 298.635 44.408 299.958 43.64C301.281 42.8293 302.241 41.656 302.838 40.12L304.374 44.728C303.649 46.9467 302.326 48.632 300.406 49.784C298.486 50.936 296.011 51.512 292.982 51.512ZM338.3 63.928C335.057 63.928 331.921 63.5227 328.892 62.712C325.905 61.944 323.409 60.7707 321.404 59.192L325.372 52.024C326.823 53.2187 328.657 54.1573 330.876 54.84C333.137 55.5653 335.356 55.928 337.532 55.928C341.073 55.928 343.633 55.1387 345.212 53.56C346.833 51.9813 347.644 49.6347 347.644 46.52V41.336L348.284 32.696L348.156 23.992V16.568H357.628V45.24C357.628 51.64 355.964 56.3547 352.636 59.384C349.308 62.4133 344.529 63.928 338.3 63.928ZM336.764 49.336C333.564 49.336 330.663 48.6533 328.06 47.288C325.5 45.88 323.431 43.9387 321.852 41.464C320.316 38.9467 319.548 36.024 319.548 32.696C319.548 29.3253 320.316 26.4027 321.852 23.928C323.431 21.4107 325.5 19.4693 328.06 18.104C330.663 16.7387 333.564 16.056 336.764 16.056C339.665 16.056 342.225 16.6533 344.444 17.848C346.663 19 348.391 20.8133 349.628 23.288C350.865 25.72 351.484 28.856 351.484 32.696C351.484 36.4933 350.865 39.6293 349.628 42.104C348.391 44.536 346.663 46.3493 344.444 47.544C342.225 48.7387 339.665 49.336 336.764 49.336ZM338.748 41.144C340.497 41.144 342.055 40.8027 343.42 40.12C344.785 39.3947 345.852 38.392 346.62 37.112C347.388 35.832 347.772 34.36 347.772 32.696C347.772 30.9893 347.388 29.5173 346.62 28.28C345.852 27 344.785 26.0187 343.42 25.336C342.055 24.6107 340.497 24.248 338.748 24.248C336.999 24.248 335.441 24.6107 334.076 25.336C332.711 26.0187 331.623 27 330.812 28.28C330.044 29.5173 329.66 30.9893 329.66 32.696C329.66 34.36 330.044 35.832 330.812 37.112C331.623 38.392 332.711 39.3947 334.076 40.12C335.441 40.8027 336.999 41.144 338.748 41.144ZM384.009 51.512C380.083 51.512 376.627 50.744 373.641 49.208C370.697 47.672 368.414 45.5813 366.793 42.936C365.171 40.248 364.361 37.1973 364.361 33.784C364.361 30.328 365.15 27.2773 366.729 24.632C368.35 21.944 370.547 19.8533 373.321 18.36C376.094 16.824 379.23 16.056 382.729 16.056C386.099 16.056 389.129 16.7813 391.817 18.232C394.547 19.64 396.702 21.688 398.281 24.376C399.859 27.0213 400.649 30.2 400.649 33.912C400.649 34.296 400.627 34.744 400.585 35.256C400.542 35.7253 400.499 36.1733 400.457 36.6H372.489V30.776H395.208L391.369 32.504C391.369 30.712 391.006 29.1547 390.281 27.832C389.555 26.5093 388.553 25.4853 387.273 24.76C385.993 23.992 384.499 23.608 382.793 23.608C381.086 23.608 379.571 23.992 378.249 24.76C376.969 25.4853 375.966 26.5307 375.241 27.896C374.515 29.2187 374.153 30.7973 374.153 32.632V34.168C374.153 36.0453 374.558 37.7093 375.369 39.16C376.222 40.568 377.395 41.656 378.889 42.424C380.425 43.1493 382.217 43.512 384.265 43.512C386.099 43.512 387.699 43.2347 389.065 42.68C390.473 42.1253 391.753 41.2933 392.905 40.184L398.217 45.944C396.638 47.736 394.654 49.1227 392.265 50.104C389.875 51.0427 387.123 51.512 384.009 51.512ZM407.296 51V16.568H416.832V26.296L415.488 23.48C416.512 21.048 418.154 19.2133 420.416 17.976C422.677 16.696 425.429 16.056 428.672 16.056V25.272C428.245 25.2293 427.861 25.208 427.52 25.208C427.178 25.1653 426.816 25.144 426.432 25.144C423.701 25.144 421.482 25.9333 419.776 27.512C418.112 29.048 417.28 31.4587 417.28 34.744V51H407.296Z" fill="#76ABAE"/>
</svg>
