<?xml version="1.0" standalone="no"?>
<!DOCTYPE svg PUBLIC "-//W3C//DTD SVG 20010904//EN"
 "http://www.w3.org/TR/2001/REC-SVG-20010904/DTD/svg10.dtd">
<svg version="1.0" xmlns="http://www.w3.org/2000/svg"
 width="408.000000pt" height="408.000000pt" viewBox="0 0 408.000000 408.000000"
 preserveAspectRatio="xMidYMid meet">
<metadata>
Created by potrace 1.14, written by Peter Selinger 2001-2017
</metadata>
<g transform="translate(0.000000,408.000000) scale(0.100000,-0.100000)"
fill="#000000" stroke="none">
<path d="M238 2912 l-26 -3 -1 -895 0 -894 209 0 208 0 1 322 c1 177 3 323 5
325 2 2 187 4 410 4 223 0 407 3 407 7 4 17 6 308 2 317 -2 7 -143 10 -413 10
l-410 0 0 78 c-1 99 -1 317 0 362 l0 35 348 0 c191 0 401 0 467 0 l120 0 1
165 1 165 -41 1 c-157 2 -1266 3 -1288 1z"/>
<path d="M1858 2909 c-7 -4 -14 -1467 -9 -1761 l1 -28 193 0 192 0 0 520 c0
286 2 520 5 520 3 0 97 -152 209 -338 113 -185 229 -377 259 -425 l54 -88 95
3 c95 3 96 3 113 33 9 17 91 154 181 305 91 151 198 332 239 402 41 70 77 128
80 128 3 0 6 -226 7 -502 1 -277 2 -515 2 -530 l1 -28 193 0 194 0 -1 895 c-1
888 -1 895 -21 896 -19 1 -302 0 -317 -1 -4 0 -80 -123 -169 -272 -89 -150
-189 -317 -221 -371 -33 -54 -67 -113 -77 -130 -10 -18 -59 -101 -108 -185
l-91 -152 -23 37 c-13 21 -26 43 -29 48 -3 6 -45 77 -95 158 -49 82 -98 163
-109 180 -17 30 -245 407 -359 596 -28 46 -56 85 -63 88 -17 6 -315 9 -326 2z"/>
</g>
</svg>
